#!OML:ASF F:\VICON\USERDATA\INSTALL\rory3\rory3.ASF
:FULLY-SPECIFIED
:DEGREES
2101
root 1.32952 15.9361 -0.467427 3.43656 -8.01917 5.28882
lowerback 17.5054 -0.396377 8.99268
upperback 2.09761 2.14579 12.0711
thorax -7.77516 0.946753 7.70924
lowerneck -10.933 -4.39606 -4.42917
upperneck 22.926 -8.69745 13.797
head 9.8928 -2.97378 4.55284
rclavicle -9.54166e-015 -1.11319e-013
rhumerus 1.01051 -35.2208 -26.4037
rradius 55.8707
rwrist 24.8714
rhand 11.1632 3.63585
rfingers 7.12502
rthumb 36.2288 -22.6241
lclavicle -9.54166e-015 -1.11319e-013
lhumerus -81.8751 -48.078 116.374
lradius 99.6972
lwrist 27.3628
lhand 13.8247 16.8201
lfingers 7.12502
lthumb 38.7443 42.4129
rfemur -16.2016 18.1701 4.98599
rtibia 28.5005
rfoot -13.3747 -13.23
rtoes -17.9535
lfemur -8.529 -2.16757 -26.5586
ltibia 18.6644
lfoot -10.1313 6.63564
ltoes -4.97207
2102
root 1.31255 15.9417 -0.459781 3.41684 -7.92778 5.09394
lowerback 17.2785 -0.356991 8.83237
upperback 2.07584 2.12019 11.9155
thorax -7.66895 0.93801 7.6179
lowerneck -11.0475 -4.43809 -4.38255
upperneck 22.9925 -8.74596 13.6828
head 9.93647 -2.99678 4.49723
rclavicle 3.65764e-014 6.36111e-014
rhumerus 0.302729 -35.0782 -26.5814
rradius 55.7719
rwrist 25.1766
rhand 11.2546 3.5213
rfingers 7.12502
rthumb 36.3153 -22.7171
lclavicle 3.65764e-014 6.36111e-014
lhumerus -81.7637 -48.1773 116.16
lradius 99.6806
lwrist 27.5997
lhand 13.8944 16.7028
lfingers 7.12502
lthumb 38.8099 42.277
rfemur -15.9143 18.122 5.31052
rtibia 28.1956
rfoot -13.3214 -13.2147
rtoes -17.8711
lfemur -8.44162 -2.29291 -26.2863
ltibia 18.695
lfoot -10.1958 6.69449
ltoes -4.96679
2103
root 1.29628 15.9482 -0.453484 3.36596 -7.80134 4.69929
lowerback 17.0849 -0.396794 8.85727
upperback 2.05164 2.03742 11.8379
thorax -7.57742 0.896736 7.52795
lowerneck -10.925 -4.44761 -4.59361
upperneck 22.9644 -8.7174 13.7028
head 9.90835 -3.00704 4.54581
rclavicle 1.90833e-014 8.26944e-014
rhumerus -0.285334 -34.8457 -26.8383
rradius 55.7086
rwrist 25.4352
rhand 11.5998 3.35505
rfingers 7.12502
rthumb 36.6421 -22.8011
lclavicle 1.90833e-014 8.26944e-014
lhumerus -81.6291 -48.0806 115.904
lradius 99.6706
lwrist 27.6169
lhand 14.1559 16.5921
lfingers 7.12502
lthumb 39.0565 42.0959
rfemur -15.5453 18.1315 5.88036
rtibia 27.8751
rfoot -13.2881 -13.2433
rtoes -17.4168
lfemur -8.28679 -2.45787 -25.8027
ltibia 18.6969
lfoot -10.257 6.7739
ltoes -5.18623
2104
root 1.27683 15.955 -0.447679 3.31963 -7.74163 4.34655
lowerback 16.9427 -0.368091 8.78178
upperback 1.97882 2.0429 11.7549
thorax -7.57811 0.900541 7.472
lowerneck -10.686 -4.46444 -4.71701
upperneck 22.9157 -8.71229 13.7085
head 9.84837 -3.02695 4.57194
rclavicle -2.38542e-014 -9.85972e-014
rhumerus -1.0262 -34.6802 -27.0049
rradius 55.5489
rwrist 25.5978
rhand 11.6872 3.37738
rfingers 7.12502
rthumb 36.7248 -22.7577
lclavicle -2.38542e-014 -9.85972e-014
lhumerus -81.6957 -48.0545 115.865
lradius 99.685
lwrist 27.576
lhand 14.422 16.6465
lfingers 7.12502
lthumb 39.3073 42.0778
rfemur -15.214 18.1581 6.40734
rtibia 27.549
rfoot -13.1388 -13.303
rtoes -17.3753
lfemur -8.15438 -2.65164 -25.3499
ltibia 18.7098
lfoot -10.3036 6.89602
ltoes -5.45581
2105
root 1.25729 15.9631 -0.43898 3.30743 -7.74001 4.25562
lowerback 16.7361 -0.287062 8.42824
upperback 1.84931 2.05994 11.599
thorax -7.61234 0.917865 7.48796
lowerneck -10.4407 -4.50767 -4.78871
upperneck 22.9723 -8.74926 13.6269
head 9.8227 -3.0666 4.55555
rclavicle -3.18055e-015 1.17681e-013
rhumerus -1.85735 -34.3902 -27.0999
rradius 55.2844
rwrist 25.5383
rhand 11.5161 3.48215
rfingers 7.12502
rthumb 36.5628 -22.6941
lclavicle -3.18055e-015 1.17681e-013
lhumerus -81.9224 -48.0623 115.979
lradius 99.697
lwrist 27.5709
lhand 14.6342 16.8191
lfingers 7.12502
lthumb 39.5072 42.1919
rfemur -14.9612 18.1267 6.61369
rtibia 27.2145
rfoot -13.0026 -13.2933
rtoes -17.3924
lfemur -8.06845 -2.8087 -25.1918
ltibia 18.7082
lfoot -10.3504 7.04022
ltoes -5.42243
